C:\GBW_MyPrograms\KinderuniversiteitApp\Resultaten\Ellis_v10102025\Kleuter\Kleuter_v3.mot
version=1
nRows=6
nColumns=29
inDegrees=yes
endheader
                time	         pelvis_tilt	           pelvis_tx	           pelvis_ty	       hip_flexion_l	       hip_flexion_r	        knee_angle_l	        knee_angle_r	       ankle_angle_l	       ankle_angle_r	    lumbar_extension	hamstrings_r/activation	bifemsh_r/activation	glut_max_r/activation	iliopsoas_r/activation	rect_fem_r/activation	  vasti_r/activation	gastroc_r/activation	 soleus_r/activation	tib_ant_r/activation	hamstrings_l/activation	bifemsh_l/activation	glut_max_l/activation	iliopsoas_l/activation	rect_fem_l/activation	  vasti_l/activation	gastroc_l/activation	 soleus_l/activation	tib_ant_l/activation	
          1.36076206	         -0.59111526	          0.71553276	          0.47501561	         21.52558671	        -12.86515571	        -22.33316043	        -11.49787555	         -8.04888607	        -16.12612996	         -8.69132701	          0.05000026	          0.05000737	          0.05000054	          0.22045747	          0.09956091	          0.08616234	          0.23751551	          0.22006500	          0.05000010	          0.05755980	          0.06283919	          0.05000415	          0.11390488	          0.06381048	          0.05000017	          0.05435631	          0.05000039	          0.08853372	
          1.36983380	         -0.59835846	          0.72138683	          0.47411409	         21.31435464	        -13.15878269	        -22.02711895	        -12.21172276	         -8.47161137	        -16.70910742	         -8.66965382	          0.05000014	          0.05000064	          0.05000033	          0.20155078	          0.08649245	          0.08052856	          0.22581253	          0.24036204	          0.05000003	          0.05000015	          0.06989145	          0.05000011	          0.09894552	          0.06308470	          0.05000013	          0.05489412	          0.05000020	          0.08600572	
          1.37890555	         -0.60499672	          0.72743134	          0.47323288	         20.98427954	        -13.37163463	        -22.00963308	        -13.09604595	         -8.81552771	        -17.38358494	         -8.63534491	          0.05000063	          0.05116240	          0.05000004	          0.18124264	          0.07513282	          0.06995213	          0.20340270	          0.25757441	          0.05000004	          0.05000014	          0.08072431	          0.05000005	          0.08595031	          0.05552102	          0.05755974	          0.06507785	          0.05000020	          0.08380554	
          1.38797730	         -0.61023500	          0.73366225	          0.47236333	         20.52151553	        -13.49685293	        -22.31106180	        -14.16809532	         -9.01973818	        -18.12624118	         -8.58420429	          0.05000022	          0.05000224	          0.05756180	          0.16731509	          0.06767812	          0.06796238	          0.17668823	          0.22988855	          0.05000000	          0.07655232	          0.14387859	          0.05000004	          0.07466180	          0.05000012	          0.05000001	          0.09282350	          0.10395736	          0.07279871	
          1.39704905	         -0.61431636	          0.74001501	          0.47152486	         19.99098064	        -13.54452412	        -22.72896423	        -15.40500895	         -9.03195671	        -18.88404663	         -8.52158257	          0.05000025	          0.05000187	          0.05000178	          0.14534085	          0.06052219	          0.06269718	          0.15348236	          0.19969545	          0.05000003	          0.07620658	          0.12498194	          0.09739449	          0.06485590	          0.05000024	          0.05000111	          0.11544946	          0.16168925	          0.06323748	
          1.40612079	         -0.61801769	          0.74638923	          0.47080570	         19.45097285	        -13.50562258	        -23.17867735	        -16.79627114	         -8.85902102	        -19.64484019	         -8.45615353	          0.05000038	          0.05000087	          0.05000029	          0.14144247	          0.05447965	          0.05926511	          0.13332430	          0.17346786	          0.07240499	          0.08458900	          0.10856716	          0.13987778	          0.05633799	          0.05000022	          0.06625419	          0.13100317	          0.18748430	          0.05493201	
